<mxfile host="app.diagrams.net" modified="2021-01-13T08:10:54.213Z" agent="5.0 (Windows NT 10.0; Win64; x64) AppleWebKit/537.36 (KHTML, like Gecko) Chrome/87.0.4280.141 Safari/537.36" etag="MUXDemeXyNvbD5J93ycD" version="14.1.9" type="github">
  <diagram id="OEhobAqETvOdapS4N9l6" name="Page-1">
    <mxGraphModel dx="870" dy="605" grid="1" gridSize="10" guides="1" tooltips="1" connect="1" arrows="1" fold="1" page="1" pageScale="1" pageWidth="827" pageHeight="1169" math="0" shadow="0">
      <root>
        <mxCell id="0" />
        <mxCell id="1" parent="0" />
        <mxCell id="JVKfqlb26yD9942Ung3X-1" value="안녕하세요!!! 히히" style="rounded=0;whiteSpace=wrap;html=1;" parent="1" vertex="1">
          <mxGeometry x="350" y="350" width="120" height="60" as="geometry" />
        </mxCell>
      </root>
    </mxGraphModel>
  </diagram>
</mxfile>
